<?xml version="1.0" encoding="UTF-8"?>
<svg id="y" width="512" height="512" version="1.1" viewBox="0 0 135.47 135.47" xmlns="http://www.w3.org/2000/svg" xmlns:xlink="http://www.w3.org/1999/xlink"><defs><filter id="m" x="-.27258" y="-.27258" width="1.5452" height="1.5452"><feGaussianBlur stdDeviation="4"/></filter><filter id="p" x="-.27258" y="-.27258" width="1.5452" height="1.5452"><feGaussianBlur stdDeviation="4"/></filter><filter id="q" x="-.27258" y="-.27258" width="1.5452" height="1.5452"><feGaussianBlur stdDeviation="4"/></filter><filter id="t" x="-.27258" y="-.27258" width="1.5452" height="1.5452"><feGaussianBlur stdDeviation="4"/></filter><filter id="s" x="-.27258" y="-.27258" width="1.5452" height="1.5452"><feGaussianBlur stdDeviation="4"/></filter><radialGradient id="a" cx="188.61" cy="260" r="34.65" gradientTransform="matrix(1 0 0 1.327 0 -85.01)" gradientUnits="userSpaceOnUse"><stop stop-color="#cfd86f" offset="0"/><stop stop-color="#dbdbdb" stop-opacity="0" offset="1"/></radialGradient><filter id="n" x="-.19172" y="-.13201" width="1.3834" height="1.264"><feGaussianBlur stdDeviation="4"/></filter><linearGradient id="e" x1="71.173" x2="113.14" y1="99.722" y2="99.837" gradientUnits="userSpaceOnUse"><stop stop-color="#dada84" offset="0"/><stop stop-color="#ffffd6" stop-opacity="0" offset="1"/></linearGradient><filter id="x" x="-.28873" y="-.1211" width="1.5775" height="1.2422"><feGaussianBlur stdDeviation="4"/></filter><filter id="v" x="-.27258" y="-.27258" width="1.5452" height="1.5452"><feGaussianBlur stdDeviation="4"/></filter><filter id="l" x="-.27258" y="-.27258" width="1.5452" height="1.5452"><feGaussianBlur stdDeviation="4"/></filter><filter id="u" x="-.27258" y="-.27258" width="1.5452" height="1.5452"><feGaussianBlur stdDeviation="4"/></filter><filter id="r" x="-.27258" y="-.27258" width="1.5452" height="1.5452"><feGaussianBlur stdDeviation="4"/></filter><filter id="i" x="-.10385" y="-.13445" width="1.2077" height="1.2689"><feGaussianBlur stdDeviation="8.6336278"/></filter><filter id="o" x="-.27258" y="-.27258" width="1.5452" height="1.5452"><feGaussianBlur stdDeviation="4"/></filter><radialGradient id="b" cx="369.22" cy="69.157" r="19.125" gradientTransform="matrix(.99817 0 0 1.0027 78.061 196.21)" gradientUnits="userSpaceOnUse"><stop stop-color="#fff" offset="0"/><stop stop-color="#fff" stop-opacity="0" offset="1"/></radialGradient><linearGradient id="d" x1="71.173" x2="113.14" y1="99.722" y2="99.837" gradientTransform="matrix(1.3708 0 0 1.3708 -30.81 -36.556)" gradientUnits="userSpaceOnUse"><stop stop-color="#e6e6de" stop-opacity=".66978" offset="0"/><stop stop-color="#ffffd6" stop-opacity="0" offset="1"/></linearGradient><filter id="w" x="-.56932" y="-.23879" width="2.1386" height="1.4776"><feGaussianBlur stdDeviation="7.8904576"/></filter><filter id="k" x="-.47246" y="-.48855" width="1.9449" height="1.9771"><feGaussianBlur stdDeviation="4.8376302"/></filter><filter id="j" x="-.51587" y="-.53347" width="2.0317" height="2.0669"><feGaussianBlur stdDeviation="4.1085454"/></filter><filter id="h" x="-.24873" y="-.2567" width="1.4975" height="1.5134"><feGaussianBlur stdDeviation="3.1118536"/></filter><filter id="g" x="-.28294" y="-.292" width="1.5659" height="1.584"><feGaussianBlur stdDeviation="0.89185776"/></filter><filter id="f" x="-.11711" y="-.11658" width="1.2342" height="1.2332"><feGaussianBlur stdDeviation="1.8629987"/></filter><linearGradient id="c" x1="12.027" x2="70.235" y1="86.124" y2="27.916" gradientTransform="matrix(1.0339 0 0 2.0362 54.457 -48.299)" gradientUnits="userSpaceOnUse"><stop stop-color="#0001cf" offset="0"/><stop stop-color="#68aaff" offset="1"/></linearGradient></defs><rect x="66.891" y="8.5448" width="60.179" height="118.53" fill="url(#c)" stroke-width=".26458"/><path transform="matrix(.38992 0 0 .39087 39.819 -18.651)" d="m190.73 136.03a17.616 17.616 0 0 1-17.616 17.616 17.616 17.616 0 0 1-17.616-17.616 17.616 17.616 0 0 1 17.616-17.616 17.616 17.616 0 0 1 17.616 17.616z" fill="#efefef" filter="url(#m)" opacity=".9175" style="mix-blend-mode:normal;paint-order:stroke fill markers"/><path transform="matrix(.17123 0 0 .17165 72.679 15.836)" d="m136.29 190.47a17.616 17.616 0 0 1-17.616 17.616 17.616 17.616 0 0 1-17.616-17.616 17.616 17.616 0 0 1 17.616-17.616 17.616 17.616 0 0 1 17.616 17.616z" fill="#dbdbdb" filter="url(#p)" opacity=".9175" style="paint-order:stroke fill markers"/><path transform="matrix(.14046 0 0 .14081 76.589 52.479)" d="m136.29 190.47a17.616 17.616 0 0 1-17.616 17.616 17.616 17.616 0 0 1-17.616-17.616 17.616 17.616 0 0 1 17.616-17.616 17.616 17.616 0 0 1 17.616 17.616z" fill="#dbdbdb" filter="url(#q)" opacity=".9175" style="paint-order:stroke fill markers"/><g><path transform="matrix(.32561 0 0 .3264 53.058 -11.933)" d="m109.02 248.02a17.616 17.616 0 0 1-17.616 17.616 17.616 17.616 0 0 1-17.616-17.616 17.616 17.616 0 0 1 17.616-17.616 17.616 17.616 0 0 1 17.616 17.616z" fill="#efefe1" filter="url(#t)" opacity=".9175" style="paint-order:stroke fill markers"/><path transform="matrix(.24823 0 0 .24883 88.692 19.094)" d="m109.02 248.02a17.616 17.616 0 0 1-17.616 17.616 17.616 17.616 0 0 1-17.616-17.616 17.616 17.616 0 0 1 17.616-17.616 17.616 17.616 0 0 1 17.616 17.616z" fill="#e5e5e5" filter="url(#s)" opacity=".9175" style="paint-order:stroke fill markers"/><path transform="matrix(.29763 0 0 .3036 54.156 -17.845)" d="m164.6 296.38c-7.1101-18.496 24.075-70.9 46.552-72.752 12.727 19.969-26.062 70.681-46.552 72.752z" fill="url(#a)" filter="url(#n)" opacity=".9175" style="paint-order:stroke fill markers"/><path transform="matrix(.23499 -.11733 .11704 .23556 52.787 16.077)" d="m83.982 138.56c-24.409-9.7445-21.783-77.113-0.91814-79.303 17.59 6.5971 19.883 41.735 13.468 62.98-2.7531 9.1174-7.11 15.676-12.55 16.323z" fill="url(#e)" filter="url(#x)" opacity=".9175" style="paint-order:stroke fill markers"/><path transform="matrix(.26252 0 0 .26316 67.629 65.836)" d="m100.68 97.068a17.616 17.616 0 0 1-17.616 17.616 17.616 17.616 0 0 1-17.616-17.616 17.616 17.616 0 0 1 17.616-17.616 17.616 17.616 0 0 1 17.616 17.616z" fill="#d1cf9d" filter="url(#v)" opacity=".9175" style="paint-order:stroke fill markers"/><path d="m9.204 8.5448h57.687v117.84h-57.687z" fill="#181818"/></g><path transform="matrix(.38992 0 0 .39087 -18.856 -16.591)" d="m190.73 136.03a17.616 17.616 0 0 1-17.616 17.616 17.616 17.616 0 0 1-17.616-17.616 17.616 17.616 0 0 1 17.616-17.616 17.616 17.616 0 0 1 17.616 17.616z" fill="#efefef" fill-opacity=".81864" filter="url(#l)" opacity=".9175" style="mix-blend-mode:normal;paint-order:stroke fill markers"/><path transform="matrix(.32561 0 0 .3264 -.68528 -9.4614)" d="m109.02 248.02a17.616 17.616 0 0 1-17.616 17.616 17.616 17.616 0 0 1-17.616-17.616 17.616 17.616 0 0 1 17.616-17.616 17.616 17.616 0 0 1 17.616 17.616z" fill="#f5f5f5" fill-opacity=".77582" filter="url(#u)" opacity=".9175" style="paint-order:stroke fill markers"/><path transform="matrix(.24823 0 0 .24883 30.018 21.154)" d="m109.02 248.02a17.616 17.616 0 0 1-17.616 17.616 17.616 17.616 0 0 1-17.616-17.616 17.616 17.616 0 0 1 17.616-17.616 17.616 17.616 0 0 1 17.616 17.616z" fill="#e5e5e5" filter="url(#r)" opacity=".56635" style="paint-order:stroke fill markers"/><path transform="matrix(0 -.50003 .3288 0 -.38699 138.82)" d="m43.953 47.369 199.52 0.36653-38.657 153.74h-160.86z" fill="none" filter="url(#i)" opacity=".52448" style="mix-blend-mode:normal;paint-order:stroke fill markers"/><path transform="matrix(.17123 0 0 .17165 94.608 -12.431)" d="m136.29 190.47a17.616 17.616 0 0 1-17.616 17.616 17.616 17.616 0 0 1-17.616-17.616 17.616 17.616 0 0 1 17.616-17.616 17.616 17.616 0 0 1 17.616 17.616z" fill="#dbdbdb" filter="url(#o)" opacity=".9175" style="paint-order:stroke fill markers"/><path d="m67.387 11.353v108.04" fill="none" stroke="#fff" stroke-linecap="square" stroke-miterlimit="4.1" stroke-width="3.7857"/><ellipse cx="67.387" cy="126.18" rx=".39476" ry=".39572" stroke="#fff" stroke-linecap="square" stroke-miterlimit="4.1" stroke-width=".42159"/><g fill="#fff"><path transform="matrix(.26457 0 0 .26459 .00029964 -.00025899)" d="m308.05 204.88a12.287 11.882 0 0 1-12.287 11.882 12.287 11.882 0 0 1-12.287-11.882 12.287 11.882 0 0 1 12.287-11.882 12.287 11.882 0 0 1 12.287 11.882z" filter="url(#k)" stop-color="#000000" stroke-width="4.6849" style="paint-order:markers fill stroke"/><path transform="matrix(.26457 0 0 .26459 2.6461 -3.1753)" d="m303.12 328.8a9.5571 9.2419 0 0 1-9.5571 9.2419 9.5571 9.2419 0 0 1-9.5571-9.2419 9.5571 9.2419 0 0 1 9.5571-9.2419 9.5571 9.2419 0 0 1 9.5571 9.2419z" filter="url(#j)" stop-color="#000000" stroke-width="3.6438" style="paint-order:markers fill stroke"/><path transform="matrix(.25992 -.048026 .046722 .25411 94.129 14.6)" d="m8.871 0.92069c2.573-0.0062 3.1214 8.6976 4.4079 9.8157s10.157-0.9442 10.586 1.2299c0.4288 2.1741-6.9029 5.7268-7.6381 7.4661s3.4427 9.1014 1.9111 10.406c-1.5316 1.3045-7.3676-5.0569-9.2667-5.0569s-7.6128 5.9887-9.1443 4.8706c-1.5316-1.1181 2.2787-8.7128 1.7886-10.328s-8.1047-5.2458-7.638-7.3578 8.9928-0.0496 10.402-1.1056c1.409-1.0561 2.4476-9.8779 4.5918-9.94" fill-rule="evenodd" filter="url(#h)" opacity=".63882" stroke-width="1.2998"/><path transform="matrix(.95628 .17186 -.16719 .93488 247.46 2.206)" d="m-143.65 87.007c0.64827-0.0016 0.78644 2.1914 1.1106 2.4731 0.32414 0.28171 2.5591-0.23789 2.6672 0.30988 0.10804 0.54777-1.7392 1.4429-1.9244 1.8811-0.18524 0.43822 0.8674 2.2931 0.48151 2.6218-0.38589 0.32867-1.8563-1.2741-2.3348-1.2741-0.47849 0-1.9181 1.5089-2.3039 1.2272-0.38589-0.28171 0.57413-2.1952 0.45065-2.6022s-2.042-1.3217-1.9244-1.8538c0.11759-0.53212 2.2658-0.0125 2.6208-0.27856 0.35501-0.26609 0.61668-2.4888 1.1569-2.5044" fill-rule="evenodd" filter="url(#g)" opacity=".543" stroke-width=".32749"/><g fill-rule="evenodd"><rect x="22.276" y="84.752" width="11.174" height="40.597"/><rect x="42.211" y="92.051" width="11.174" height="33.298"/><rect x="102.02" y="89.643" width="11.174" height="35.707"/><rect x="82.081" y="102.29" width="11.174" height="23.059"/><rect x="62.146" y="74.037" width="11.174" height="51.313"/></g></g><rect x="8.3961" y="8.3962" width="118.67" height="118.67" fill="none" stroke="#000" stroke-linejoin="round" stroke-width="4.0922" style="paint-order:fill markers stroke"/><path transform="matrix(.26457 0 0 .26459 .00029964 -.00025899)" d="m444.03 246.41c3.2669-0.61835 5.9509 10.18 7.8403 11.278 1.8894 1.0985 12.686-3.5958 13.727-0.9679 1.0412 2.628-7.4605 8.8286-7.9972 11.187-0.5368 2.3583 6.4512 10.61 4.8034 12.612-1.6476 2.0014-10.513-4.6009-12.925-4.1503-2.4123 0.45072-8.3025 9.3258-10.503 8.2854-2.2008-1.0404 0.905-11.48-0.086-13.392-0.9914-1.9117-11.492-4.6633-11.382-7.4257 0.1106-2.7626 11.412-2.1963 12.96-3.8566 1.5486-1.6603 0.8536-12.983 3.563-13.57" fill="url(#b)" fill-rule="evenodd" filter="url(#f)" stroke-width="1.6691"/><path transform="matrix(.14549 -.072639 .072464 .14584 5.3936 24.944)" d="m83.982 138.56c-24.409-9.7445-21.783-77.113-0.91814-79.303 17.59 6.5971 19.883 41.735 13.468 62.98-2.7531 9.1174-7.11 15.676-12.55 16.323z" fill="url(#d)" filter="url(#w)" opacity=".9175" style="paint-order:stroke fill markers"/></svg>
